<svg xmlns="http://www.w3.org/2000/svg" width="256" height="256" viewBox="0 0 100 100"><rect width="100" height="100" rx="20" fill="#c13f77"></rect><path fill="#f0f0f0" d="M31.12 83.48Q23.68 83.48 19.87 79.25Q16.06 75.02 16.06 67.11L16.06 67.11L16.06 63.39L25.73 63.39L25.73 67.86Q25.73 74.18 31.03 74.18L31.03 74.18Q33.63 74.18 34.98 72.65Q36.33 71.11 36.33 67.67L36.33 67.67Q36.33 63.58 34.47 60.46Q32.61 57.35 27.59 52.98L27.59 52.98Q21.26 47.40 18.75 42.89Q16.24 38.38 16.24 32.70L16.24 32.70Q16.24 24.98 20.15 20.75Q24.05 16.52 31.49 16.52L31.49 16.52Q38.84 16.52 42.61 20.75Q46.37 24.98 46.37 32.89L46.37 32.89L46.37 35.59L36.70 35.59L36.70 32.24Q36.70 28.89 35.40 27.35Q34.10 25.82 31.59 25.82L31.59 25.82Q26.47 25.82 26.47 32.05L26.47 32.05Q26.47 35.59 28.38 38.65Q30.28 41.72 35.31 46.09L35.31 46.09Q41.72 51.67 44.14 56.23Q46.56 60.79 46.56 66.93L46.56 66.93Q46.56 74.92 42.61 79.20Q38.65 83.48 31.12 83.48L31.12 83.48ZM52.42 82.55L52.42 17.45L67.58 17.45Q75.48 17.45 79.11 21.12Q82.74 24.80 82.74 32.42L82.74 32.42L82.74 36.42Q82.74 46.56 76.04 49.26L76.04 49.26L76.04 49.44Q79.76 50.56 81.29 54.00Q82.83 57.44 82.83 63.21L82.83 63.21L82.83 74.64Q82.83 77.44 83.02 79.16Q83.20 80.88 83.94 82.55L83.94 82.55L73.53 82.55Q72.97 80.97 72.78 79.57Q72.60 78.18 72.60 74.55L72.60 74.55L72.60 62.65Q72.60 58.18 71.16 56.42Q69.72 54.65 66.18 54.65L66.18 54.65L62.65 54.65L62.65 82.55L52.42 82.55ZM62.65 45.35L66.37 45.35Q69.44 45.35 70.97 43.77Q72.51 42.19 72.51 38.47L72.51 38.47L72.51 33.45Q72.51 29.91 71.25 28.33Q70.00 26.75 67.30 26.75L67.30 26.75L62.65 26.75L62.65 45.35Z"></path></svg>